<mxfile host="app.diagrams.net" modified="2020-10-30T05:09:58.179Z" agent="5.0 (Macintosh; Intel Mac OS X 10_15_7) AppleWebKit/605.1.15 (KHTML, like Gecko) Version/14.0 Safari/605.1.15" etag="60MRwCMzpGIf4FGGwYnQ" version="13.8.5" type="github">
  <diagram id="_dvkM-Z6IW51VZn25M04" name="Page-1">
    <mxGraphModel dx="1026" dy="562" grid="1" gridSize="10" guides="1" tooltips="1" connect="1" arrows="1" fold="1" page="1" pageScale="1" pageWidth="1100" pageHeight="850" math="0" shadow="0">
      <root>
        <mxCell id="0" />
        <mxCell id="1" style="locked=1;" parent="0" />
        <mxCell id="RkMdZwRdzVDmLsqv5lqF-1" value="" style="rounded=0;whiteSpace=wrap;html=1;fillColor=none;" parent="1" vertex="1">
          <mxGeometry x="56" y="270" width="970" height="530" as="geometry" />
        </mxCell>
        <mxCell id="RkMdZwRdzVDmLsqv5lqF-3" value="Boxes" style="locked=1;" parent="0" />
        <mxCell id="RkMdZwRdzVDmLsqv5lqF-4" value="" style="rounded=0;whiteSpace=wrap;html=1;fillColor=none;" parent="RkMdZwRdzVDmLsqv5lqF-3" vertex="1">
          <mxGeometry x="120" y="310" width="544" height="482" as="geometry" />
        </mxCell>
        <mxCell id="RkMdZwRdzVDmLsqv5lqF-5" value="" style="rounded=0;whiteSpace=wrap;html=1;fillColor=none;" parent="RkMdZwRdzVDmLsqv5lqF-3" vertex="1">
          <mxGeometry x="670" y="310" width="320" height="230" as="geometry" />
        </mxCell>
        <mxCell id="RkMdZwRdzVDmLsqv5lqF-6" value="" style="rounded=0;whiteSpace=wrap;html=1;fillColor=none;" parent="RkMdZwRdzVDmLsqv5lqF-3" vertex="1">
          <mxGeometry x="260" y="620" width="350" height="150" as="geometry" />
        </mxCell>
        <mxCell id="RkMdZwRdzVDmLsqv5lqF-7" value="Icons" style="locked=1;" parent="0" />
        <mxCell id="RkMdZwRdzVDmLsqv5lqF-22" value="" style="verticalLabelPosition=bottom;html=1;verticalAlign=top;align=center;strokeColor=none;fillColor=#00BEF2;shape=mxgraph.azure.load_balancer_generic;pointerEvents=1;" parent="RkMdZwRdzVDmLsqv5lqF-7" vertex="1">
          <mxGeometry x="350" y="420" width="180" height="187.77" as="geometry" />
        </mxCell>
        <mxCell id="RkMdZwRdzVDmLsqv5lqF-8" value="" style="verticalLabelPosition=bottom;html=1;verticalAlign=top;align=center;strokeColor=none;fillColor=#00BEF2;shape=mxgraph.azure.laptop;pointerEvents=1;" parent="RkMdZwRdzVDmLsqv5lqF-7" vertex="1">
          <mxGeometry x="500" y="40" width="99.02" height="70" as="geometry" />
        </mxCell>
        <mxCell id="RkMdZwRdzVDmLsqv5lqF-9" value="" style="aspect=fixed;perimeter=ellipsePerimeter;html=1;align=center;shadow=0;dashed=0;spacingTop=3;image;image=img/lib/active_directory/internet_cloud.svg;" parent="RkMdZwRdzVDmLsqv5lqF-7" vertex="1">
          <mxGeometry x="480" y="130" width="140" height="88.2" as="geometry" />
        </mxCell>
        <mxCell id="RkMdZwRdzVDmLsqv5lqF-10" value="" style="aspect=fixed;html=1;points=[];align=center;image;fontSize=12;image=img/lib/azure2/networking/Virtual_Networks.svg;" parent="RkMdZwRdzVDmLsqv5lqF-7" vertex="1">
          <mxGeometry x="280" y="270" width="67" height="40" as="geometry" />
        </mxCell>
        <mxCell id="RkMdZwRdzVDmLsqv5lqF-12" value="" style="verticalLabelPosition=bottom;html=1;fillColor=#6ABD46;strokeColor=#ffffff;verticalAlign=top;align=center;points=[[0.085,0.085,0],[0.915,0.085,0],[0.915,0.915,0],[0.085,0.915,0],[0.25,0,0],[0.5,0,0],[0.75,0,0],[1,0.25,0],[1,0.5,0],[1,0.75,0],[0.75,1,0],[0.5,1,0],[0.25,1,0],[0,0.75,0],[0,0.5,0],[0,0.25,0]];pointerEvents=1;shape=mxgraph.cisco_safe.compositeIcon;bgIcon=mxgraph.cisco_safe.architecture.generic_appliance;resIcon=mxgraph.cisco_safe.architecture.firewall;" parent="RkMdZwRdzVDmLsqv5lqF-7" vertex="1">
          <mxGeometry x="147.02" y="390" width="101.66" height="100" as="geometry" />
        </mxCell>
        <mxCell id="RkMdZwRdzVDmLsqv5lqF-21" value="" style="html=1;aspect=fixed;strokeColor=none;shadow=0;align=center;verticalAlign=top;fillColor=#3B8DF1;shape=mxgraph.gcp2.servers_stacked" parent="RkMdZwRdzVDmLsqv5lqF-7" vertex="1">
          <mxGeometry x="157.85" y="500" width="90" height="90" as="geometry" />
        </mxCell>
        <mxCell id="RkMdZwRdzVDmLsqv5lqF-24" value="" style="aspect=fixed;html=1;points=[];align=center;image;fontSize=12;image=img/lib/azure2/containers/Container_Instances.svg;" parent="RkMdZwRdzVDmLsqv5lqF-7" vertex="1">
          <mxGeometry x="140" y="601.65" width="111.84" height="120.58" as="geometry" />
        </mxCell>
        <mxCell id="RkMdZwRdzVDmLsqv5lqF-25" value="" style="verticalLabelPosition=bottom;html=1;fillColor=#6ABD46;strokeColor=#ffffff;verticalAlign=top;align=center;points=[[0.085,0.085,0],[0.915,0.085,0],[0.915,0.915,0],[0.085,0.915,0],[0.25,0,0],[0.5,0,0],[0.75,0,0],[1,0.25,0],[1,0.5,0],[1,0.75,0],[0.75,1,0],[0.5,1,0],[0.25,1,0],[0,0.75,0],[0,0.5,0],[0,0.25,0]];pointerEvents=1;shape=mxgraph.cisco_safe.compositeIcon;bgIcon=mxgraph.cisco_safe.architecture.generic_appliance;resIcon=mxgraph.cisco_safe.architecture.firewall;" parent="RkMdZwRdzVDmLsqv5lqF-7" vertex="1">
          <mxGeometry x="729.9999999999998" y="375" width="101.66" height="100" as="geometry" />
        </mxCell>
        <mxCell id="RkMdZwRdzVDmLsqv5lqF-26" value="" style="html=1;aspect=fixed;strokeColor=none;shadow=0;align=center;verticalAlign=top;fillColor=#3B8DF1;shape=mxgraph.gcp2.servers_stacked" parent="RkMdZwRdzVDmLsqv5lqF-7" vertex="1">
          <mxGeometry x="870" y="385" width="80" height="80" as="geometry" />
        </mxCell>
        <mxCell id="RkMdZwRdzVDmLsqv5lqF-27" value="" style="html=1;aspect=fixed;strokeColor=none;shadow=0;align=center;verticalAlign=top;fillColor=#3B8DF1;shape=mxgraph.gcp2.servers_stacked" parent="RkMdZwRdzVDmLsqv5lqF-7" vertex="1">
          <mxGeometry x="400" y="630" width="80" height="80" as="geometry" />
        </mxCell>
        <mxCell id="RkMdZwRdzVDmLsqv5lqF-28" value="" style="html=1;aspect=fixed;strokeColor=none;shadow=0;align=center;verticalAlign=top;fillColor=#3B8DF1;shape=mxgraph.gcp2.servers_stacked" parent="RkMdZwRdzVDmLsqv5lqF-7" vertex="1">
          <mxGeometry x="509.51" y="631.11" width="80" height="80" as="geometry" />
        </mxCell>
        <mxCell id="RkMdZwRdzVDmLsqv5lqF-29" value="" style="html=1;aspect=fixed;strokeColor=none;shadow=0;align=center;verticalAlign=top;fillColor=#3B8DF1;shape=mxgraph.gcp2.servers_stacked" parent="RkMdZwRdzVDmLsqv5lqF-7" vertex="1">
          <mxGeometry x="273.5" y="631.11" width="80" height="80" as="geometry" />
        </mxCell>
        <mxCell id="RkMdZwRdzVDmLsqv5lqF-30" value="text" style="" parent="0" />
        <mxCell id="RkMdZwRdzVDmLsqv5lqF-31" value="&lt;h1&gt;Home Base&lt;/h1&gt;" style="text;html=1;strokeColor=none;fillColor=none;align=center;verticalAlign=middle;whiteSpace=wrap;rounded=0;" parent="RkMdZwRdzVDmLsqv5lqF-30" vertex="1">
          <mxGeometry x="530" y="60" width="40" height="20" as="geometry" />
        </mxCell>
        <mxCell id="RkMdZwRdzVDmLsqv5lqF-32" value="&lt;h1&gt;Internet&amp;nbsp;&lt;/h1&gt;" style="text;html=1;strokeColor=none;fillColor=none;align=center;verticalAlign=middle;whiteSpace=wrap;rounded=0;" parent="RkMdZwRdzVDmLsqv5lqF-30" vertex="1">
          <mxGeometry x="537" y="160" width="40" height="20" as="geometry" />
        </mxCell>
        <mxCell id="RkMdZwRdzVDmLsqv5lqF-33" value="&lt;h2&gt;Azure Resource Group&lt;/h2&gt;" style="text;html=1;strokeColor=none;fillColor=none;align=center;verticalAlign=middle;whiteSpace=wrap;rounded=0;" parent="RkMdZwRdzVDmLsqv5lqF-30" vertex="1">
          <mxGeometry x="455" y="240" width="190" height="20" as="geometry" />
        </mxCell>
        <mxCell id="RkMdZwRdzVDmLsqv5lqF-34" value="&lt;h2&gt;&lt;font style=&quot;font-size: 14px&quot;&gt;Red Net 10.0.0/16&lt;/font&gt;&lt;/h2&gt;" style="text;html=1;strokeColor=none;fillColor=none;align=center;verticalAlign=middle;whiteSpace=wrap;rounded=0;" parent="RkMdZwRdzVDmLsqv5lqF-30" vertex="1">
          <mxGeometry x="103" y="284" width="157" height="30" as="geometry" />
        </mxCell>
        <mxCell id="RkMdZwRdzVDmLsqv5lqF-35" value="&lt;h2&gt;&lt;font style=&quot;font-size: 14px&quot;&gt;Elk Net 10.1.0.0/16&lt;/font&gt;&lt;/h2&gt;" style="text;html=1;strokeColor=none;fillColor=none;align=center;verticalAlign=middle;whiteSpace=wrap;rounded=0;" parent="RkMdZwRdzVDmLsqv5lqF-30" vertex="1">
          <mxGeometry x="850" y="282" width="160" height="34" as="geometry" />
        </mxCell>
        <mxCell id="RkMdZwRdzVDmLsqv5lqF-36" value="&lt;h3&gt;RedTeamSG&lt;/h3&gt;" style="text;html=1;strokeColor=none;fillColor=none;align=center;verticalAlign=middle;whiteSpace=wrap;rounded=0;" parent="RkMdZwRdzVDmLsqv5lqF-30" vertex="1">
          <mxGeometry x="164" y="392" width="70" height="20" as="geometry" />
        </mxCell>
        <mxCell id="RkMdZwRdzVDmLsqv5lqF-38" value="&lt;h3&gt;&amp;nbsp;Ansible Container&lt;/h3&gt;" style="text;html=1;strokeColor=none;fillColor=none;align=center;verticalAlign=middle;whiteSpace=wrap;rounded=0;" parent="RkMdZwRdzVDmLsqv5lqF-30" vertex="1">
          <mxGeometry x="146" y="610" width="102" height="38" as="geometry" />
        </mxCell>
        <mxCell id="RkMdZwRdzVDmLsqv5lqF-39" value="&lt;h2&gt;Red Team Load Balancer&lt;/h2&gt;" style="text;html=1;strokeColor=none;fillColor=none;align=center;verticalAlign=middle;whiteSpace=wrap;rounded=0;" parent="RkMdZwRdzVDmLsqv5lqF-30" vertex="1">
          <mxGeometry x="330" y="470" width="220" height="30" as="geometry" />
        </mxCell>
        <mxCell id="RkMdZwRdzVDmLsqv5lqF-41" value="&lt;h3&gt;Elk-Server-SG&lt;/h3&gt;" style="text;html=1;strokeColor=none;fillColor=none;align=center;verticalAlign=middle;whiteSpace=wrap;rounded=0;" parent="RkMdZwRdzVDmLsqv5lqF-30" vertex="1">
          <mxGeometry x="727" y="380" width="109" height="20" as="geometry" />
        </mxCell>
        <mxCell id="RkMdZwRdzVDmLsqv5lqF-42" value="&lt;h5&gt;&lt;font style=&quot;font-size: 12px&quot;&gt;Elk-Server1&lt;/font&gt;&lt;/h5&gt;" style="text;html=1;strokeColor=none;fillColor=none;align=center;verticalAlign=middle;whiteSpace=wrap;rounded=0;" parent="RkMdZwRdzVDmLsqv5lqF-30" vertex="1">
          <mxGeometry x="890" y="393" width="40" height="50" as="geometry" />
        </mxCell>
        <mxCell id="RkMdZwRdzVDmLsqv5lqF-43" value="&lt;h5&gt;&lt;font style=&quot;font-size: 12px&quot;&gt;Web-1&lt;/font&gt;&lt;/h5&gt;" style="text;html=1;strokeColor=none;fillColor=none;align=center;verticalAlign=middle;whiteSpace=wrap;rounded=0;" parent="RkMdZwRdzVDmLsqv5lqF-30" vertex="1">
          <mxGeometry x="293" y="647" width="40" height="20" as="geometry" />
        </mxCell>
        <mxCell id="RkMdZwRdzVDmLsqv5lqF-44" value="&lt;h5&gt;&lt;font style=&quot;font-size: 12px&quot;&gt;Web-2&lt;/font&gt;&lt;/h5&gt;" style="text;html=1;strokeColor=none;fillColor=none;align=center;verticalAlign=middle;whiteSpace=wrap;rounded=0;" parent="RkMdZwRdzVDmLsqv5lqF-30" vertex="1">
          <mxGeometry x="420" y="646" width="40" height="20" as="geometry" />
        </mxCell>
        <mxCell id="RkMdZwRdzVDmLsqv5lqF-45" value="&lt;h5&gt;&lt;font style=&quot;font-size: 12px&quot;&gt;Web-3&lt;/font&gt;&lt;/h5&gt;" style="text;html=1;strokeColor=none;fillColor=none;align=center;verticalAlign=middle;whiteSpace=wrap;rounded=0;" parent="RkMdZwRdzVDmLsqv5lqF-30" vertex="1">
          <mxGeometry x="530" y="647" width="40" height="20" as="geometry" />
        </mxCell>
        <mxCell id="RkMdZwRdzVDmLsqv5lqF-46" value="&lt;h5&gt;&lt;font style=&quot;font-size: 12px&quot;&gt;JumpBox&lt;/font&gt;&lt;/h5&gt;&lt;div&gt;&lt;font style=&quot;font-size: 12px&quot;&gt;VM&lt;/font&gt;&lt;/div&gt;" style="text;html=1;strokeColor=none;fillColor=none;align=center;verticalAlign=middle;whiteSpace=wrap;rounded=0;" parent="RkMdZwRdzVDmLsqv5lqF-30" vertex="1">
          <mxGeometry x="183" y="527" width="40" height="20" as="geometry" />
        </mxCell>
        <mxCell id="RkMdZwRdzVDmLsqv5lqF-49" value="&lt;h4&gt;&lt;font style=&quot;font-size: 12px&quot;&gt;Load Balancer Backend Pool&lt;/font&gt;&lt;/h4&gt;" style="text;html=1;strokeColor=none;fillColor=none;align=center;verticalAlign=middle;whiteSpace=wrap;rounded=0;" parent="RkMdZwRdzVDmLsqv5lqF-30" vertex="1">
          <mxGeometry x="330" y="755" width="213" as="geometry" />
        </mxCell>
        <mxCell id="RkMdZwRdzVDmLsqv5lqF-82" value="10.0.0.8" style="text;html=1;strokeColor=none;fillColor=none;align=center;verticalAlign=middle;whiteSpace=wrap;rounded=0;" parent="RkMdZwRdzVDmLsqv5lqF-30" vertex="1">
          <mxGeometry x="293" y="674" width="40" height="20" as="geometry" />
        </mxCell>
        <mxCell id="RkMdZwRdzVDmLsqv5lqF-83" value="10.0.0.9" style="text;html=1;strokeColor=none;fillColor=none;align=center;verticalAlign=middle;whiteSpace=wrap;rounded=0;" parent="RkMdZwRdzVDmLsqv5lqF-30" vertex="1">
          <mxGeometry x="420" y="674" width="40" height="20" as="geometry" />
        </mxCell>
        <mxCell id="RkMdZwRdzVDmLsqv5lqF-84" value="10.0.0.10" style="text;html=1;strokeColor=none;fillColor=none;align=center;verticalAlign=middle;whiteSpace=wrap;rounded=0;" parent="RkMdZwRdzVDmLsqv5lqF-30" vertex="1">
          <mxGeometry x="530" y="674" width="40" height="20" as="geometry" />
        </mxCell>
        <mxCell id="RkMdZwRdzVDmLsqv5lqF-85" value="&lt;font style=&quot;font-size: 14px&quot;&gt;40.118.175.52&lt;/font&gt;" style="text;html=1;strokeColor=none;fillColor=none;align=center;verticalAlign=middle;whiteSpace=wrap;rounded=0;" parent="RkMdZwRdzVDmLsqv5lqF-30" vertex="1">
          <mxGeometry x="420" y="490" width="40" height="20" as="geometry" />
        </mxCell>
        <mxCell id="RkMdZwRdzVDmLsqv5lqF-87" value="10.1.0.4" style="text;html=1;strokeColor=none;fillColor=none;align=center;verticalAlign=middle;whiteSpace=wrap;rounded=0;" parent="RkMdZwRdzVDmLsqv5lqF-30" vertex="1">
          <mxGeometry x="890" y="429" width="40" height="20" as="geometry" />
        </mxCell>
        <mxCell id="RkMdZwRdzVDmLsqv5lqF-88" value="10.0.0.4" style="text;html=1;strokeColor=none;fillColor=none;align=center;verticalAlign=middle;whiteSpace=wrap;rounded=0;" parent="RkMdZwRdzVDmLsqv5lqF-30" vertex="1">
          <mxGeometry x="177" y="646" width="40" height="20" as="geometry" />
        </mxCell>
        <mxCell id="RkMdZwRdzVDmLsqv5lqF-89" value="&lt;font style=&quot;font-size: 14px&quot;&gt;SSH/HTTP&lt;/font&gt;" style="strokeWidth=1;shadow=0;dashed=0;align=center;html=1;shape=mxgraph.mockup.text.callout;linkText=;textSize=17;textColor=#666666;callDir=SE;callStyle=line;fontSize=17;fontColor=#666666;align=right;verticalAlign=bottom;strokeColor=#666666;" parent="RkMdZwRdzVDmLsqv5lqF-30" vertex="1">
          <mxGeometry x="550" y="110" width="130" height="30" as="geometry" />
        </mxCell>
        <mxCell id="RkMdZwRdzVDmLsqv5lqF-91" value="&lt;font style=&quot;font-size: 12px&quot;&gt;SSH PT 22&lt;/font&gt;" style="strokeWidth=1;shadow=0;dashed=0;align=center;html=1;shape=mxgraph.mockup.text.callout;linkText=;textSize=17;textColor=#666666;callDir=NW;callStyle=line;fontSize=17;fontColor=#666666;align=left;verticalAlign=top;strokeColor=#666666;" parent="RkMdZwRdzVDmLsqv5lqF-30" vertex="1">
          <mxGeometry x="56" y="470" width="144" height="30" as="geometry" />
        </mxCell>
        <mxCell id="RkMdZwRdzVDmLsqv5lqF-94" value="&lt;font style=&quot;font-size: 12px&quot;&gt;SSH PT 22&lt;/font&gt;" style="strokeWidth=1;shadow=0;dashed=0;align=center;html=1;shape=mxgraph.mockup.text.callout;linkText=;textSize=17;textColor=#666666;callDir=SW;callStyle=line;fontSize=17;fontColor=#666666;align=left;verticalAlign=bottom;strokeColor=#666666;" parent="RkMdZwRdzVDmLsqv5lqF-30" vertex="1">
          <mxGeometry x="150" y="740" width="110" height="40" as="geometry" />
        </mxCell>
        <mxCell id="RkMdZwRdzVDmLsqv5lqF-95" value="&lt;font style=&quot;font-size: 12px&quot;&gt;SSH&lt;br&gt;PT 22/5601&lt;/font&gt;" style="strokeWidth=1;shadow=0;dashed=0;align=center;html=1;shape=mxgraph.mockup.text.callout;linkText=;textSize=17;textColor=#666666;callDir=SE;callStyle=line;fontSize=17;fontColor=#666666;align=right;verticalAlign=bottom;strokeColor=#666666;" parent="RkMdZwRdzVDmLsqv5lqF-30" vertex="1">
          <mxGeometry x="910" y="550" width="100" height="40" as="geometry" />
        </mxCell>
        <mxCell id="RkMdZwRdzVDmLsqv5lqF-96" value="HTTP (PORT 80)" style="text;html=1;strokeColor=none;fillColor=none;align=center;verticalAlign=middle;whiteSpace=wrap;rounded=0;" parent="RkMdZwRdzVDmLsqv5lqF-30" vertex="1">
          <mxGeometry x="260" y="410" width="120" height="30" as="geometry" />
        </mxCell>
        <mxCell id="RkMdZwRdzVDmLsqv5lqF-97" value="HTTP" style="text;html=1;strokeColor=none;fillColor=none;align=center;verticalAlign=middle;whiteSpace=wrap;rounded=0;" parent="RkMdZwRdzVDmLsqv5lqF-30" vertex="1">
          <mxGeometry x="830" y="405" width="40" height="20" as="geometry" />
        </mxCell>
        <mxCell id="RkMdZwRdzVDmLsqv5lqF-98" value="Log Data from 10.0.0.8-10.0.0.10" style="text;html=1;strokeColor=none;fillColor=none;align=center;verticalAlign=middle;whiteSpace=wrap;rounded=0;" parent="RkMdZwRdzVDmLsqv5lqF-30" vertex="1">
          <mxGeometry x="680" y="660" width="123" height="34" as="geometry" />
        </mxCell>
        <mxCell id="RkMdZwRdzVDmLsqv5lqF-99" value="&lt;font style=&quot;font-size: 12px&quot;&gt;SSH PT 22&lt;/font&gt;" style="strokeWidth=1;shadow=0;dashed=0;align=center;html=1;shape=mxgraph.mockup.text.callout;linkText=;textSize=17;textColor=#666666;callDir=NW;callStyle=line;fontSize=17;fontColor=#666666;align=left;verticalAlign=top;strokeColor=#666666;" parent="RkMdZwRdzVDmLsqv5lqF-30" vertex="1">
          <mxGeometry x="56" y="573" width="144" height="30" as="geometry" />
        </mxCell>
        <mxCell id="RkMdZwRdzVDmLsqv5lqF-50" value="arrows" style="locked=1;" parent="0" />
        <mxCell id="RkMdZwRdzVDmLsqv5lqF-51" value="" style="endArrow=none;html=1;" parent="RkMdZwRdzVDmLsqv5lqF-50" edge="1">
          <mxGeometry width="50" height="50" relative="1" as="geometry">
            <mxPoint x="550" y="130" as="sourcePoint" />
            <mxPoint x="550" y="110" as="targetPoint" />
          </mxGeometry>
        </mxCell>
        <mxCell id="RkMdZwRdzVDmLsqv5lqF-52" value="" style="endArrow=none;html=1;entryX=0;entryY=0.5;entryDx=0;entryDy=0;exitX=0.985;exitY=0.505;exitDx=0;exitDy=0;exitPerimeter=0;" parent="RkMdZwRdzVDmLsqv5lqF-50" source="RkMdZwRdzVDmLsqv5lqF-10" target="RkMdZwRdzVDmLsqv5lqF-9" edge="1">
          <mxGeometry width="50" height="50" relative="1" as="geometry">
            <mxPoint x="250" y="330" as="sourcePoint" />
            <mxPoint x="300" y="280" as="targetPoint" />
          </mxGeometry>
        </mxCell>
        <mxCell id="RkMdZwRdzVDmLsqv5lqF-53" value="" style="endArrow=none;html=1;entryX=0.007;entryY=0.558;entryDx=0;entryDy=0;entryPerimeter=0;exitX=0.5;exitY=0;exitDx=0;exitDy=0;exitPerimeter=0;" parent="RkMdZwRdzVDmLsqv5lqF-50" source="RkMdZwRdzVDmLsqv5lqF-12" target="RkMdZwRdzVDmLsqv5lqF-10" edge="1">
          <mxGeometry width="50" height="50" relative="1" as="geometry">
            <mxPoint x="347.27525155330727" y="340" as="sourcePoint" />
            <mxPoint x="489.9999999999993" y="184.09999999999997" as="targetPoint" />
          </mxGeometry>
        </mxCell>
        <mxCell id="RkMdZwRdzVDmLsqv5lqF-54" value="" style="endArrow=none;html=1;entryX=1;entryY=0.5;entryDx=0;entryDy=0;exitX=0.018;exitY=0.535;exitDx=0;exitDy=0;exitPerimeter=0;" parent="RkMdZwRdzVDmLsqv5lqF-50" source="RkMdZwRdzVDmLsqv5lqF-60" target="RkMdZwRdzVDmLsqv5lqF-9" edge="1">
          <mxGeometry width="50" height="50" relative="1" as="geometry">
            <mxPoint x="755.071891586183" y="270" as="sourcePoint" />
            <mxPoint x="710" y="280" as="targetPoint" />
          </mxGeometry>
        </mxCell>
        <mxCell id="RkMdZwRdzVDmLsqv5lqF-55" value="" style="endArrow=none;html=1;" parent="RkMdZwRdzVDmLsqv5lqF-50" edge="1">
          <mxGeometry width="50" height="50" relative="1" as="geometry">
            <mxPoint x="198" y="500" as="sourcePoint" />
            <mxPoint x="198" y="490" as="targetPoint" />
          </mxGeometry>
        </mxCell>
        <mxCell id="RkMdZwRdzVDmLsqv5lqF-56" value="" style="endArrow=none;html=1;entryX=0.457;entryY=1;entryDx=0;entryDy=0;entryPerimeter=0;" parent="RkMdZwRdzVDmLsqv5lqF-50" target="RkMdZwRdzVDmLsqv5lqF-21" edge="1">
          <mxGeometry width="50" height="50" relative="1" as="geometry">
            <mxPoint x="199" y="602" as="sourcePoint" />
            <mxPoint x="199" y="592" as="targetPoint" />
          </mxGeometry>
        </mxCell>
        <mxCell id="RkMdZwRdzVDmLsqv5lqF-57" value="" style="endArrow=none;html=1;entryX=1;entryY=0.5;entryDx=0;entryDy=0;entryPerimeter=0;exitX=0.358;exitY=0.105;exitDx=0;exitDy=0;exitPerimeter=0;" parent="RkMdZwRdzVDmLsqv5lqF-50" source="RkMdZwRdzVDmLsqv5lqF-22" target="RkMdZwRdzVDmLsqv5lqF-12" edge="1">
          <mxGeometry width="50" height="50" relative="1" as="geometry">
            <mxPoint x="350" y="440" as="sourcePoint" />
            <mxPoint x="470" y="450" as="targetPoint" />
          </mxGeometry>
        </mxCell>
        <mxCell id="RkMdZwRdzVDmLsqv5lqF-60" value="" style="aspect=fixed;html=1;points=[];align=center;image;fontSize=12;image=img/lib/azure2/networking/Virtual_Networks.svg;" parent="RkMdZwRdzVDmLsqv5lqF-50" vertex="1">
          <mxGeometry x="740" y="270" width="67" height="40" as="geometry" />
        </mxCell>
        <mxCell id="RkMdZwRdzVDmLsqv5lqF-71" value="" style="endArrow=none;html=1;entryX=0.499;entryY=0.996;entryDx=0;entryDy=0;entryPerimeter=0;" parent="RkMdZwRdzVDmLsqv5lqF-50" target="RkMdZwRdzVDmLsqv5lqF-24" edge="1">
          <mxGeometry width="50" height="50" relative="1" as="geometry">
            <mxPoint x="260" y="740" as="sourcePoint" />
            <mxPoint x="440" y="760" as="targetPoint" />
            <Array as="points">
              <mxPoint x="196" y="740" />
            </Array>
          </mxGeometry>
        </mxCell>
        <mxCell id="RkMdZwRdzVDmLsqv5lqF-72" value="" style="edgeStyle=segmentEdgeStyle;endArrow=classic;html=1;" parent="RkMdZwRdzVDmLsqv5lqF-50" edge="1">
          <mxGeometry width="50" height="50" relative="1" as="geometry">
            <mxPoint x="260" y="740" as="sourcePoint" />
            <mxPoint x="313" y="710" as="targetPoint" />
          </mxGeometry>
        </mxCell>
        <mxCell id="RkMdZwRdzVDmLsqv5lqF-73" value="" style="edgeStyle=segmentEdgeStyle;endArrow=classic;html=1;" parent="RkMdZwRdzVDmLsqv5lqF-50" edge="1">
          <mxGeometry width="50" height="50" relative="1" as="geometry">
            <mxPoint x="300" y="740" as="sourcePoint" />
            <mxPoint x="440" y="710" as="targetPoint" />
          </mxGeometry>
        </mxCell>
        <mxCell id="RkMdZwRdzVDmLsqv5lqF-74" value="" style="edgeStyle=segmentEdgeStyle;endArrow=classic;html=1;" parent="RkMdZwRdzVDmLsqv5lqF-50" edge="1">
          <mxGeometry width="50" height="50" relative="1" as="geometry">
            <mxPoint x="430" y="740" as="sourcePoint" />
            <mxPoint x="550" y="710" as="targetPoint" />
          </mxGeometry>
        </mxCell>
        <mxCell id="RkMdZwRdzVDmLsqv5lqF-75" value="" style="edgeStyle=segmentEdgeStyle;endArrow=classic;html=1;" parent="RkMdZwRdzVDmLsqv5lqF-50" target="RkMdZwRdzVDmLsqv5lqF-26" edge="1">
          <mxGeometry width="50" height="50" relative="1" as="geometry">
            <mxPoint x="540" y="740" as="sourcePoint" />
            <mxPoint x="820" y="650" as="targetPoint" />
          </mxGeometry>
        </mxCell>
        <mxCell id="RkMdZwRdzVDmLsqv5lqF-76" value="" style="edgeStyle=segmentEdgeStyle;endArrow=classic;html=1;exitX=1;exitY=0.5;exitDx=0;exitDy=0;" parent="RkMdZwRdzVDmLsqv5lqF-50" source="RkMdZwRdzVDmLsqv5lqF-6" target="RkMdZwRdzVDmLsqv5lqF-26" edge="1">
          <mxGeometry width="50" height="50" relative="1" as="geometry">
            <mxPoint x="610" y="610" as="sourcePoint" />
            <mxPoint x="660" y="560" as="targetPoint" />
          </mxGeometry>
        </mxCell>
        <mxCell id="RkMdZwRdzVDmLsqv5lqF-77" value="" style="endArrow=none;html=1;entryX=0.985;entryY=0.539;entryDx=0;entryDy=0;entryPerimeter=0;exitX=0.75;exitY=0;exitDx=0;exitDy=0;exitPerimeter=0;" parent="RkMdZwRdzVDmLsqv5lqF-50" source="RkMdZwRdzVDmLsqv5lqF-25" target="RkMdZwRdzVDmLsqv5lqF-60" edge="1">
          <mxGeometry width="50" height="50" relative="1" as="geometry">
            <mxPoint x="806" y="370" as="sourcePoint" />
            <mxPoint x="950" y="490" as="targetPoint" />
          </mxGeometry>
        </mxCell>
        <mxCell id="RkMdZwRdzVDmLsqv5lqF-78" value="" style="endArrow=none;html=1;exitX=1;exitY=0.5;exitDx=0;exitDy=0;exitPerimeter=0;entryX=0.01;entryY=0.495;entryDx=0;entryDy=0;entryPerimeter=0;" parent="RkMdZwRdzVDmLsqv5lqF-50" source="RkMdZwRdzVDmLsqv5lqF-25" target="RkMdZwRdzVDmLsqv5lqF-26" edge="1">
          <mxGeometry width="50" height="50" relative="1" as="geometry">
            <mxPoint x="890" y="440" as="sourcePoint" />
            <mxPoint x="940" y="390" as="targetPoint" />
          </mxGeometry>
        </mxCell>
      </root>
    </mxGraphModel>
  </diagram>
</mxfile>
